<svg width="1920" height="1745" viewBox="0 0 1920 1745" fill="none" xmlns="http://www.w3.org/2000/svg">
<circle cx="998" cy="605" r="1131" fill="#CE2127"/>
<path opacity="0.15" fill-rule="evenodd" clip-rule="evenodd" d="M1123.87 -392.826L1036.8 -342.125L951.308 -395.597L1039.88 -546L1123.87 -392.826ZM1033.54 -132.054C1024.9 -116.452 1015.76 -99.8484 1006.18 -82.32C935.985 46.0712 842.209 223.691 747.735 420.819C653.147 618.185 558.535 833.707 486.181 1038.14C413.177 1244.41 365.656 1431.7 359.835 1575L160 1566.38C167.128 1390.88 223.191 1179.67 298.28 967.508C374.019 753.511 472.009 530.679 568.405 329.542C664.914 128.167 760.504 -52.8665 831.927 -183.502C867.661 -248.861 897.4 -301.704 918.252 -338.286C928.68 -356.58 936.888 -370.813 942.517 -380.52C945.332 -385.373 947.502 -389.095 948.982 -391.627C949.722 -392.893 950.29 -393.862 950.679 -394.526C950.874 -394.858 951.024 -395.114 951.129 -395.293L951.289 -395.564C951.3 -395.583 951.308 -395.597 1036.8 -342.125C1123.87 -392.826 1123.88 -392.812 1123.89 -392.793L1124.46 -391.747C1124.82 -391.081 1125.35 -390.109 1126.04 -388.84C1127.42 -386.302 1129.44 -382.575 1132.06 -377.715C1137.31 -367.997 1144.94 -353.751 1154.63 -335.445C1174.01 -298.837 1201.62 -245.964 1234.72 -180.573C1300.87 -49.8753 1389.15 131.247 1477.52 332.728C1565.8 533.966 1654.8 756.963 1721.91 971.156C1788.46 1183.54 1836 1395.03 1836 1570.69H1635.99C1635.99 1427.55 1596.13 1240.53 1531.58 1034.49C1467.59 830.255 1381.8 614.898 1295.27 417.632C1208.85 220.611 1122.33 43.08 1057.38 -85.2495C1049.06 -101.686 1041.1 -117.309 1033.54 -132.054Z" fill="#EEEEEE"/>
<path opacity="0.15" fill-rule="evenodd" clip-rule="evenodd" d="M872.095 1596.19L959.158 1547L1044.65 1598.88L956.076 1744.82L872.095 1596.19ZM962.416 1343.17C971.053 1328.03 980.193 1311.92 989.776 1294.91C1059.97 1170.33 1153.74 997.99 1248.21 806.717C1342.79 615.213 1437.4 406.093 1509.75 207.734C1582.75 7.59167 1630.27 -174.134 1636.09 -313.182L1835.91 -304.818C1828.79 -134.532 1772.73 70.4083 1697.64 276.266C1621.9 483.907 1523.92 700.12 1427.53 895.283C1331.02 1090.68 1235.44 1266.33 1164.02 1393.09C1128.29 1456.51 1098.55 1507.78 1077.7 1543.28C1067.27 1561.03 1059.06 1574.84 1053.44 1584.25C1050.62 1588.96 1048.45 1592.57 1046.97 1595.03C1046.23 1596.26 1045.66 1597.2 1045.27 1597.84C1045.08 1598.17 1044.93 1598.41 1044.82 1598.59L1044.66 1598.85C1044.65 1598.87 1044.65 1598.88 959.158 1547C872.095 1596.19 872.088 1596.18 872.077 1596.16L871.505 1595.15C871.141 1594.5 870.612 1593.56 869.921 1592.33C868.541 1589.86 866.519 1586.25 863.899 1581.53C858.658 1572.1 851.021 1558.28 841.331 1540.52C821.951 1505 794.344 1453.69 761.25 1390.25C695.105 1263.43 606.829 1087.69 518.457 892.191C430.191 696.931 341.187 480.558 274.081 272.727C207.542 66.6508 160 -138.555 160 -309H360C360 -170.112 399.853 11.3492 464.406 211.273C528.392 409.442 614.178 618.403 700.701 809.809C787.118 1000.98 873.632 1173.24 938.578 1297.75C946.897 1313.7 954.858 1328.86 962.416 1343.17Z" fill="#EEEEEE"/>
</svg>
